<?xml version="1.0" standalone="no"?>
<!DOCTYPE svg PUBLIC "-//W3C//DTD SVG 20010904//EN"
 "http://www.w3.org/TR/2001/REC-SVG-20010904/DTD/svg10.dtd">
<svg version="1.0" xmlns="http://www.w3.org/2000/svg"
 width="300.000000pt" height="150.000000pt" viewBox="0 0 300.000000 150.000000"
 preserveAspectRatio="xMidYMid meet">
<metadata>
Created by potrace 1.10, written by Peter Selinger 2001-2011
</metadata>
<g transform="translate(0.000000,150.000000) scale(0.100000,-0.100000)"
fill="#000000" stroke="none">
<path d="M2328 1263 c-41 -87 -104 -224 -139 -305 l-64 -148 -177 0 -177 0 28
68 c42 99 128 286 172 374 42 83 46 98 27 98 -15 -1 -88 -148 -189 -380 l-67
-155 -149 -6 c-81 -4 -176 -7 -210 -8 -54 -1 -66 -5 -88 -28 -17 -19 -25 -23
-25 -13 0 9 -12 3 -31 -18 -30 -32 -77 -58 -86 -48 -10 10 15 37 48 54 19 9
33 22 32 27 -4 17 -40 17 -56 1 -9 -9 -19 -16 -24 -16 -5 0 -25 -11 -46 -25
-20 -14 -37 -24 -37 -21 0 2 9 25 20 51 24 56 24 55 5 55 -9 0 -18 -7 -21 -15
-4 -10 -13 -13 -25 -10 -25 8 -56 -10 -74 -44 -13 -26 -13 -30 1 -42 12 -10
20 -8 44 10 56 41 34 -10 -36 -87 -18 -20 -50 -69 -70 -108 l-36 -71 -71 -2
c-90 -2 -226 -18 -301 -35 -31 -7 -56 -9 -56 -5 0 5 4 9 8 9 5 0 38 39 74 88
134 177 299 441 423 677 38 72 79 144 92 161 26 35 29 54 9 54 -18 0 -25 -9
-86 -125 -174 -327 -358 -626 -493 -797 -57 -72 -66 -79 -133 -103 -82 -30
-152 -72 -159 -96 -8 -25 5 -49 30 -55 33 -8 79 19 154 93 58 56 74 66 126 78
68 16 181 31 303 40 l82 6 -10 -27 c-25 -64 27 -76 62 -14 l23 40 105 0 c119
0 308 -14 423 -32 64 -9 77 -15 77 -30 0 -20 20 -24 37 -7 7 7 17 8 25 3 7 -5
24 -10 36 -12 37 -5 21 21 -19 31 -19 5 -35 10 -37 11 -1 2 34 88 77 192 l79
189 180 3 180 2 -85 -202 c-150 -359 -194 -472 -189 -485 8 -20 33 -15 32 6
-1 10 60 168 134 350 l135 331 43 0 c23 0 42 5 42 10 0 6 -16 10 -35 10 -19 0
-35 2 -35 5 0 8 142 328 207 465 29 63 61 121 70 128 15 11 14 12 -9 12 -22 0
-32 -15 -100 -157z m-898 -478 c0 -6 -90 -89 -101 -93 -5 -2 0 16 11 40 14 32
26 45 47 49 40 9 43 10 43 4z m286 -27 c-73 -171 -136 -325 -136 -336 0 -9 -9
-12 -27 -8 -126 25 -357 46 -507 46 -59 0 -77 3 -73 13 3 6 24 55 47 107 39
89 58 115 103 141 16 9 17 8 8 -9 -16 -30 9 -47 49 -33 17 5 38 7 47 4 11 -5
30 8 61 43 45 50 46 48 18 -19 -15 -33 -15 -38 -1 -43 8 -4 27 1 41 11 19 12
29 14 39 5 18 -15 68 1 110 34 46 37 24 41 -34 5 -28 -18 -54 -30 -56 -27 -12
12 10 40 41 53 19 8 34 21 34 29 0 14 19 16 125 16 l125 0 -14 -32z m-666 19
c0 -2 -13 -16 -30 -32 -33 -32 -42 -21 -10 13 18 19 40 29 40 19z m-75 -240
c-21 -48 -40 -77 -50 -77 -13 0 -12 7 6 43 32 63 74 128 77 119 1 -5 -13 -43
-33 -85z m-60 -128 c-19 -35 -30 -32 -21 6 4 14 13 25 21 25 14 0 14 -4 0 -31z
m-546 -56 c-54 -68 -134 -122 -152 -104 -20 20 5 44 82 84 84 42 89 44 70 20z"/>
<path d="M983 977 c-56 -60 -76 -96 -63 -112 20 -25 43 -19 36 9 -4 18 4 38
29 76 20 29 34 54 32 56 -2 2 -17 -11 -34 -29z"/>
<path d="M2612 801 c-7 -4 -14 -20 -16 -36 -3 -29 -33 -57 -74 -69 -20 -7 -21
-5 -11 16 5 13 25 30 42 38 18 8 31 20 30 25 -4 18 -41 16 -60 -3 -25 -26 -53
-34 -70 -21 -15 14 -15 14 -37 -26 l-17 -30 6 40 c4 22 7 45 8 50 1 6 -5 10
-13 10 -8 0 -25 -20 -38 -45 -22 -42 -23 -43 -18 -12 3 17 3 32 0 32 -3 0 -19
-13 -36 -30 -37 -38 -49 -38 -42 0 9 43 -21 53 -53 16 -42 -49 -21 -122 25
-84 9 8 30 20 45 26 26 11 28 11 25 -10 -5 -36 28 -35 47 1 19 37 28 40 19 6
-5 -21 -3 -25 15 -25 11 0 28 11 37 25 18 28 57 35 52 9 -2 -9 5 -21 15 -28
14 -9 27 -6 67 15 56 30 75 21 39 -17 l-22 -24 26 0 c14 0 30 6 34 13 4 7 22
19 38 25 40 17 81 49 73 58 -4 3 -28 -8 -55 -25 l-47 -31 -11 27 c-10 24 -9
30 11 46 37 29 6 64 -34 38z m18 -26 c-7 -9 -15 -13 -17 -11 -7 7 7 26 19 26
6 0 6 -6 -2 -15z m-380 -36 c0 -11 -4 -18 -10 -14 -5 3 -7 12 -3 20 7 21 13
19 13 -6z m-28 -51 c-9 -9 -12 -7 -12 12 0 19 3 21 12 12 9 -9 9 -15 0 -24z"/>
</g>
</svg>
