<?xml version="1.0" standalone="no"?>
<!DOCTYPE svg PUBLIC "-//W3C//DTD SVG 20010904//EN"
 "http://www.w3.org/TR/2001/REC-SVG-20010904/DTD/svg10.dtd">
<svg version="1.0" xmlns="http://www.w3.org/2000/svg"
 width="400.000000pt" height="200.000000pt" viewBox="0 0 400.000000 200.000000"
 preserveAspectRatio="xMidYMid meet">
<metadata>
Created by potrace 1.13, written by Peter Selinger 2001-2015
</metadata>
<g transform="translate(0.000000,200.000000) scale(0.100000,-0.100000)"
fill="#000000" stroke="none">
<path d="M3213 1892 c-21 -13 -295 -598 -358 -764 l-18 -48 -238 0 -238 0 31
73 c47 112 170 380 232 506 60 121 65 141 40 141 -18 0 -124 -214 -258 -520
l-85 -195 -113 -6 c-62 -4 -188 -8 -280 -9 l-168 -1 -26 -28 c-15 -17 -34 -27
-44 -24 -10 3 -26 -8 -43 -30 -25 -33 -93 -74 -104 -64 -14 15 14 50 55 70 54
26 62 51 16 55 -20 2 -36 -4 -49 -18 -10 -11 -23 -20 -30 -20 -6 0 -32 -13
-57 -29 l-46 -30 19 56 c10 31 19 62 19 70 0 18 -25 17 -40 -2 -7 -8 -26 -15
-42 -15 -38 0 -73 -24 -88 -60 -24 -59 8 -77 69 -39 28 17 33 18 27 4 -3 -9
-6 -21 -6 -26 0 -5 -24 -35 -54 -68 -52 -56 -119 -162 -145 -228 -14 -36 2
-32 -246 -53 -71 -6 -176 -19 -232 -28 -57 -10 -103 -16 -103 -14 0 1 29 39
65 83 146 179 441 648 603 958 42 80 90 166 107 191 18 25 35 53 38 63 8 22
-17 34 -37 18 -8 -7 -64 -105 -124 -219 -60 -114 -145 -268 -187 -342 -102
-179 -346 -545 -446 -669 -68 -84 -87 -102 -127 -117 -26 -9 -67 -23 -91 -32
-62 -22 -158 -87 -166 -112 -10 -33 19 -70 56 -70 52 0 98 30 190 121 63 64
98 91 126 98 75 20 287 51 391 56 59 4 118 8 130 11 23 5 24 3 17 -45 -6 -43
-4 -50 13 -55 31 -10 49 3 82 55 l30 49 97 0 c192 0 467 -22 641 -52 51 -8 62
-14 62 -29 0 -13 7 -19 24 -19 14 0 28 5 31 10 3 6 11 10 16 10 6 0 7 -5 4
-10 -4 -6 12 -10 39 -10 61 0 58 15 -4 31 -27 7 -50 18 -50 23 0 6 46 122 102
257 l102 246 66 7 c83 8 410 8 410 0 0 -3 -58 -146 -129 -317 -257 -619 -256
-617 -211 -617 13 0 19 10 23 38 4 29 222 572 339 844 20 46 21 47 71 50 67 4
77 28 12 28 -43 0 -46 1 -39 22 8 28 202 461 282 632 34 71 68 133 76 138 9 5
16 13 16 18 0 12 -30 13 -47 2z m-913 -848 c0 -3 -24 -62 -54 -132 -30 -70
-75 -179 -101 -242 -26 -63 -48 -116 -50 -118 -2 -2 -63 6 -136 17 -151 23
-401 41 -560 41 l-107 0 63 147 c54 128 67 150 101 174 49 35 50 35 49 2 0
-27 2 -28 45 -26 25 1 61 3 80 3 29 1 44 10 87 58 l53 57 -20 -48 c-28 -68
-26 -87 8 -87 15 0 37 7 49 15 14 10 24 12 28 5 17 -27 97 -6 157 42 58 45 33
59 -28 15 -58 -41 -94 -55 -94 -35 0 24 18 41 62 62 28 14 43 27 42 39 -2 16
12 17 162 17 90 0 164 -3 164 -6z"/>
<path d="M3482 1064 c-15 -10 -22 -25 -22 -48 0 -27 -7 -38 -38 -58 -49 -33
-82 -43 -82 -26 0 24 18 41 62 62 50 24 57 49 14 54 -19 3 -36 -4 -55 -21 -33
-31 -68 -42 -86 -27 -18 15 -31 7 -57 -34 -18 -28 -19 -29 -15 -6 18 85 19
100 6 100 -21 0 -35 -12 -58 -50 l-21 -35 0 28 c0 15 -2 27 -5 27 -3 0 -23
-18 -44 -40 -45 -48 -65 -52 -57 -12 4 17 1 35 -8 47 -12 16 -18 18 -39 8 -38
-18 -63 -74 -58 -130 1 -17 51 -16 70 1 9 8 33 21 54 30 l38 15 -3 -32 c-2
-27 1 -33 19 -35 16 -2 28 6 43 30 18 29 20 31 20 10 0 -12 7 -25 15 -28 20
-8 62 20 70 46 4 14 15 20 35 20 25 0 29 -3 27 -27 -2 -27 0 -28 45 -27 35 0
57 7 85 27 37 27 38 27 47 7 7 -16 5 -24 -12 -36 -12 -8 -22 -19 -22 -25 0
-12 47 -12 55 1 4 6 30 22 58 36 59 30 107 64 107 76 0 16 -21 8 -73 -27 -28
-19 -56 -35 -62 -35 -6 0 -16 14 -22 31 -11 29 -10 33 12 51 28 22 33 53 9 62
-22 9 -27 8 -52 -10z"/>
</g>
</svg>
